# MagicaVoxel @ Ephtracy

# group
o 

# material
mtllib Torch.mtl
usemtl palette

# normals
vn -1 0 0
vn 1 0 0
vn 0 0 1
vn 0 0 -1
vn 0 -1 0
vn 0 1 0

# texcoords
vt 0.205078 0.5
vt 0.208984 0.5
vt 0.212891 0.5
vt 0.263672 0.5
vt 0.318359 0.5

# verts
v -0.5 2.2 0.1
v -0.5 2.2 -0.1
v -0.5 2.3 0.4
v -0.5 2.3 0.1
v -0.5 2.3 -0.1
v -0.5 2.3 -0.4
v -0.5 2.8 0.4
v -0.5 2.8 -0.4
v -0.4 2.3 0.5
v -0.4 2.3 0.4
v -0.4 2.3 -0.4
v -0.4 2.3 -0.5
v -0.4 2.8 0.5
v -0.4 2.8 0.4
v -0.4 2.8 -0.4
v -0.4 2.8 -0.5
v -0.4 2.9 0.4
v -0.4 2.9 -0.4
v -0.3 1.4 0.1
v -0.3 1.4 -0.1
v -0.3 2.2 0.1
v -0.3 2.2 -0.1
v -0.3 2.9 0.3
v -0.3 2.9 0.2
v -0.3 2.9 0
v -0.3 2.9 -0.3
v -0.3 3 0.3
v -0.3 3 0.2
v -0.3 3 0
v -0.3 3 -0.2
v -0.3 3 -0.3
v -0.3 3.1 0.2
v -0.3 3.1 0.1
v -0.3 3.1 0
v -0.3 3.1 -0.2
v -0.3 3.1 -0.3
v -0.3 3.2 0.1
v -0.3 3.2 0
v -0.3 3.2 -0.1
v -0.3 3.2 -0.2
v -0.3 3.3 0.1
v -0.3 3.3 0
v -0.3 3.3 -0.1
v -0.3 3.3 -0.2
v -0.3 3.4 0.1
v -0.3 3.4 -0.1
v -0.3 3.4 -0.2
v -0.2 0 0.1
v -0.2 0 -0.1
v -0.2 1.1 0.2
v -0.2 1.1 0.1
v -0.2 1.1 -0.1
v -0.2 1.1 -0.2
v -0.2 1.4 0.1
v -0.2 1.4 -0.1
v -0.2 2.3 0.2
v -0.2 2.3 0.1
v -0.2 2.3 -0.1
v -0.2 2.3 -0.2
v -0.2 3 0.3
v -0.2 3 0.2
v -0.2 3.1 0.3
v -0.2 3.1 0.2
v -0.2 3.1 0.1
v -0.2 3.1 -0.2
v -0.2 3.1 -0.3
v -0.2 3.2 0.2
v -0.2 3.2 0.1
v -0.2 3.2 -0.2
v -0.2 3.2 -0.3
v -0.2 3.3 0.2
v -0.2 3.3 0.1
v -0.2 3.4 0.2
v -0.2 3.4 0.1
v -0.1 0 0.2
v -0.1 0 0.1
v -0.1 0 -0.1
v -0.1 0 -0.2
v -0.1 1.1 0.2
v -0.1 1.1 0.1
v -0.1 1.1 -0.1
v -0.1 1.1 -0.2
v -0.1 1.4 0.3
v -0.1 1.4 0.2
v -0.1 1.4 -0.2
v -0.1 1.4 -0.3
v -0.1 2.2 0.5
v -0.1 2.2 0.3
v -0.1 2.2 -0.3
v -0.1 2.2 -0.5
v -0.1 2.3 0.5
v -0.1 2.3 0.2
v -0.1 2.3 -0.2
v -0.1 2.3 -0.5
v -0.1 3.1 0.3
v -0.1 3.1 0.2
v -0.1 3.2 0.3
v -0.1 3.2 0.2
v -0.1 3.2 0.1
v -0.1 3.2 0
v -0.1 3.2 -0.1
v -0.1 3.2 -0.2
v -0.1 3.2 -0.3
v -0.1 3.3 0.3
v -0.1 3.3 0.2
v -0.1 3.3 0.1
v -0.1 3.3 -0.2
v -0.1 3.3 -0.3
v -0.1 3.4 0.1
v -0.1 3.4 -0.1
v -0.1 3.4 -0.2
v -0.1 3.4 -0.3
v -0.2 3.2 0.1
v -0.2 3.2 0
v -0.2 3.2 -0.1
v -0.2 3.3 0.1
v -0.2 3.3 0
v -0.2 3.3 -0.1
v -0.2 3.4 0.1
v -0.2 3.4 -0.1
v 0 3.3 0.2
v 0 3.3 0.1
v 0 3.4 0.2
v 0 3.4 0.1
v 0.1 0 0.2
v 0.1 0 0.1
v 0.1 0 -0.1
v 0.1 0 -0.2
v 0.1 1.1 0.2
v 0.1 1.1 0.1
v 0.1 1.1 -0.1
v 0.1 1.1 -0.2
v 0.1 1.4 0.3
v 0.1 1.4 0.2
v 0.1 1.4 -0.2
v 0.1 1.4 -0.3
v 0.1 2.2 0.5
v 0.1 2.2 0.3
v 0.1 2.2 -0.3
v 0.1 2.2 -0.5
v 0.1 2.3 0.5
v 0.1 2.3 0.2
v 0.1 2.3 -0.2
v 0.1 2.3 -0.5
v 0.1 3.2 -0.2
v 0.1 3.2 -0.3
v 0.1 3.3 -0.2
v 0.1 3.4 -0.2
v 0.1 3.4 -0.3
v 0.2 0 0.1
v 0.2 0 -0.1
v 0.2 1.1 0.2
v 0.2 1.1 0.1
v 0.2 1.1 -0.1
v 0.2 1.1 -0.2
v 0.2 1.4 0.1
v 0.2 1.4 -0.1
v 0.2 2.3 0.2
v 0.2 2.3 0.1
v 0.2 2.3 -0.1
v 0.2 2.3 -0.2
v 0.2 3 0.3
v 0.2 3 0.2
v 0.2 3 -0.2
v 0.2 3 -0.3
v 0.2 3.1 0.3
v 0.2 3.1 0.2
v 0.2 3.1 0.1
v 0.2 3.1 -0.2
v 0.2 3.1 -0.3
v 0.2 3.2 0.2
v 0.2 3.2 0.1
v 0.2 3.2 0
v 0.2 3.2 -0.1
v 0.2 3.2 -0.2
v 0.2 3.2 -0.3
v 0.2 3.3 0.3
v 0.2 3.3 0.1
v 0.2 3.3 0
v 0.2 3.3 -0.1
v 0.2 3.3 -0.2
v 0.2 3.4 0
v 0.2 3.4 -0.1
v 0.2 3.4 -0.2
v 0.3 1.4 0.1
v 0.3 1.4 -0.1
v 0.3 2.2 0.1
v 0.3 2.2 -0.1
v 0.3 2.9 0.3
v 0.3 2.9 0.1
v 0.3 2.9 0
v 0.3 2.9 -0.2
v 0.3 2.9 -0.3
v 0.3 3 0.3
v 0.3 3 0.2
v 0.3 3 0.1
v 0.3 3 0
v 0.3 3 -0.2
v 0.3 3 -0.3
v 0.3 3.1 0.2
v 0.3 3.1 0.1
v 0.3 3.1 0
v 0.3 3.1 -0.1
v 0.3 3.2 0.1
v 0.3 3.2 0
v 0.3 3.2 -0.1
v 0.3 3.2 -0.2
v 0.3 3.4 0.1
v 0.3 3.4 0
v 0.4 2.3 0.5
v 0.4 2.3 0.4
v 0.4 2.3 -0.4
v 0.4 2.3 -0.5
v 0.4 2.8 0.5
v 0.4 2.8 0.4
v 0.4 2.8 -0.4
v 0.4 2.8 -0.5
v 0.4 2.9 0.4
v 0.4 2.9 -0.4
v 0.5 2.2 0.1
v 0.5 2.2 -0.1
v 0.5 2.3 0.4
v 0.5 2.3 0.1
v 0.5 2.3 -0.1
v 0.5 2.3 -0.4
v 0.5 2.8 0.4
v 0.5 2.8 -0.4
v -0.4 2.3 0.5
v -0.4 2.8 0.5
v -0.1 2.2 0.5
v -0.1 2.3 0.5
v 0.1 2.2 0.5
v 0.1 2.3 0.5
v 0.4 2.3 0.5
v 0.4 2.8 0.5
v -0.5 2.3 0.4
v -0.5 2.8 0.4
v -0.4 2.3 0.4
v -0.4 2.8 0.4
v -0.4 2.9 0.4
v 0.4 2.3 0.4
v 0.4 2.8 0.4
v 0.4 2.9 0.4
v 0.5 2.3 0.4
v 0.5 2.8 0.4
v -0.3 2.9 0.3
v -0.3 3 0.3
v -0.2 2.9 0.3
v -0.2 3 0.3
v -0.2 3.1 0.3
v -0.1 1.4 0.3
v -0.1 2.2 0.3
v -0.1 2.9 0.3
v -0.1 3.1 0.3
v -0.1 3.2 0.3
v -0.1 3.3 0.3
v 0 2.9 0.3
v 0 3.2 0.3
v 0.1 1.4 0.3
v 0.1 2.2 0.3
v 0.1 2.9 0.3
v 0.1 3 0.3
v 0.1 3.1 0.3
v 0.1 3.3 0.3
v 0.2 3 0.3
v 0.2 3.1 0.3
v 0.2 3.3 0.3
v 0.3 2.9 0.3
v 0.3 3 0.3
v -0.3 3 0.2
v -0.3 3.1 0.2
v -0.2 1.1 0.2
v -0.2 2.3 0.2
v -0.2 3 0.2
v -0.2 3.1 0.2
v -0.2 3.2 0.2
v -0.2 3.3 0.2
v -0.2 3.4 0.2
v -0.1 0 0.2
v -0.1 1.1 0.2
v -0.1 1.4 0.2
v -0.1 2.3 0.2
v -0.1 3.1 0.2
v -0.1 3.2 0.2
v -0.1 3.3 0.2
v -0.1 3.4 0.2
v 0 3.3 0.2
v 0 3.4 0.2
v 0.1 0 0.2
v 0.1 1.1 0.2
v 0.1 1.4 0.2
v 0.1 2.3 0.2
v 0.2 1.1 0.2
v 0.2 2.3 0.2
v 0.2 3 0.2
v 0.2 3.1 0.2
v 0.3 3 0.2
v 0.3 3.1 0.2
v -0.5 2.2 0.1
v -0.5 2.3 0.1
v -0.3 1.4 0.1
v -0.3 2.2 0.1
v -0.3 3.1 0.1
v -0.3 3.2 0.1
v -0.3 3.3 0.1
v -0.3 3.4 0.1
v -0.2 0 0.1
v -0.2 1.1 0.1
v -0.2 1.4 0.1
v -0.2 2.3 0.1
v -0.2 3.1 0.1
v -0.2 3.2 0.1
v -0.2 3.3 0.1
v -0.2 3.4 0.1
v -0.1 0 0.1
v -0.1 1.1 0.1
v 0 3.3 0.1
v 0 3.4 0.1
v 0.1 0 0.1
v 0.1 1.1 0.1
v 0.1 3.3 0.1
v 0.2 0 0.1
v 0.2 1.1 0.1
v 0.2 1.4 0.1
v 0.2 2.3 0.1
v 0.2 3.1 0.1
v 0.2 3.2 0.1
v 0.2 3.3 0.1
v 0.2 3.4 0.1
v 0.3 1.4 0.1
v 0.3 2.2 0.1
v 0.3 3.1 0.1
v 0.3 3.2 0.1
v 0.3 3.4 0.1
v 0.5 2.2 0.1
v 0.5 2.3 0.1
v -0.2 3.2 -0.1
v -0.2 3.3 -0.1
v -0.2 3.4 -0.1
v -0.1 3.2 -0.1
v -0.1 3.4 -0.1
v -0.2 3.2 0.1
v -0.2 3.3 0.1
v -0.2 3.4 0.1
v -0.1 3.2 0.1
v -0.1 3.3 0.1
v -0.1 3.4 0.1
v 0.2 3.2 0
v 0.2 3.3 0
v 0.2 3.4 0
v 0.3 3.2 0
v 0.3 3.4 0
v -0.5 2.2 -0.1
v -0.5 2.3 -0.1
v -0.3 1.4 -0.1
v -0.3 2.2 -0.1
v -0.2 0 -0.1
v -0.2 1.1 -0.1
v -0.2 1.4 -0.1
v -0.2 2.3 -0.1
v -0.1 0 -0.1
v -0.1 1.1 -0.1
v 0.1 0 -0.1
v 0.1 1.1 -0.1
v 0.2 0 -0.1
v 0.2 1.1 -0.1
v 0.2 1.4 -0.1
v 0.2 2.3 -0.1
v 0.3 1.4 -0.1
v 0.3 2.2 -0.1
v 0.5 2.2 -0.1
v 0.5 2.3 -0.1
v -0.3 3.1 -0.2
v -0.3 3.2 -0.2
v -0.3 3.3 -0.2
v -0.3 3.4 -0.2
v -0.2 1.1 -0.2
v -0.2 2.3 -0.2
v -0.2 3.1 -0.2
v -0.2 3.2 -0.2
v -0.2 3.3 -0.2
v -0.2 3.4 -0.2
v -0.1 0 -0.2
v -0.1 1.1 -0.2
v -0.1 1.4 -0.2
v -0.1 2.3 -0.2
v -0.1 3.2 -0.2
v -0.1 3.3 -0.2
v -0.1 3.4 -0.2
v 0.1 0 -0.2
v 0.1 1.1 -0.2
v 0.1 1.4 -0.2
v 0.1 2.3 -0.2
v 0.1 3.2 -0.2
v 0.1 3.3 -0.2
v 0.1 3.4 -0.2
v 0.2 1.1 -0.2
v 0.2 2.3 -0.2
v 0.2 3 -0.2
v 0.2 3.1 -0.2
v 0.2 3.2 -0.2
v 0.2 3.3 -0.2
v 0.2 3.4 -0.2
v 0.3 3 -0.2
v 0.3 3.2 -0.2
v -0.3 2.9 -0.3
v -0.3 3 -0.3
v -0.3 3.1 -0.3
v -0.2 2.9 -0.3
v -0.2 3 -0.3
v -0.2 3.1 -0.3
v -0.2 3.2 -0.3
v -0.1 1.4 -0.3
v -0.1 2.2 -0.3
v -0.1 3.2 -0.3
v -0.1 3.3 -0.3
v -0.1 3.4 -0.3
v 0 2.9 -0.3
v 0 3 -0.3
v 0 3.1 -0.3
v 0 3.2 -0.3
v 0 3.3 -0.3
v 0 3.4 -0.3
v 0.1 1.4 -0.3
v 0.1 2.2 -0.3
v 0.1 3 -0.3
v 0.1 3.1 -0.3
v 0.1 3.2 -0.3
v 0.1 3.4 -0.3
v 0.2 3 -0.3
v 0.2 3.1 -0.3
v 0.2 3.2 -0.3
v 0.3 2.9 -0.3
v 0.3 3 -0.3
v -0.5 2.3 -0.4
v -0.5 2.8 -0.4
v -0.4 2.3 -0.4
v -0.4 2.8 -0.4
v -0.4 2.9 -0.4
v 0.4 2.3 -0.4
v 0.4 2.8 -0.4
v 0.4 2.9 -0.4
v 0.5 2.3 -0.4
v 0.5 2.8 -0.4
v -0.4 2.3 -0.5
v -0.4 2.8 -0.5
v -0.1 2.2 -0.5
v -0.1 2.3 -0.5
v 0.1 2.2 -0.5
v 0.1 2.3 -0.5
v 0.4 2.3 -0.5
v 0.4 2.8 -0.5
v -0.1 0 0.2
v 0.1 0 0.2
v -0.2 0 0.1
v -0.1 0 0.1
v 0.1 0 0.1
v 0.2 0 0.1
v -0.2 0 -0.1
v -0.1 0 -0.1
v 0.1 0 -0.1
v 0.2 0 -0.1
v -0.1 0 -0.2
v 0.1 0 -0.2
v -0.2 1.1 0.2
v -0.1 1.1 0.2
v 0.1 1.1 0.2
v 0.2 1.1 0.2
v -0.2 1.1 0.1
v -0.1 1.1 0.1
v 0.1 1.1 0.1
v 0.2 1.1 0.1
v -0.2 1.1 -0.1
v -0.1 1.1 -0.1
v 0.1 1.1 -0.1
v 0.2 1.1 -0.1
v -0.2 1.1 -0.2
v -0.1 1.1 -0.2
v 0.1 1.1 -0.2
v 0.2 1.1 -0.2
v -0.1 1.4 0.3
v 0.1 1.4 0.3
v -0.1 1.4 0.2
v 0.1 1.4 0.2
v -0.3 1.4 0.1
v -0.2 1.4 0.1
v 0.2 1.4 0.1
v 0.3 1.4 0.1
v -0.3 1.4 -0.1
v -0.2 1.4 -0.1
v 0.2 1.4 -0.1
v 0.3 1.4 -0.1
v -0.1 1.4 -0.2
v 0.1 1.4 -0.2
v -0.1 1.4 -0.3
v 0.1 1.4 -0.3
v -0.1 2.2 0.5
v 0.1 2.2 0.5
v -0.1 2.2 0.3
v 0.1 2.2 0.3
v -0.5 2.2 0.1
v -0.3 2.2 0.1
v 0.3 2.2 0.1
v 0.5 2.2 0.1
v -0.5 2.2 -0.1
v -0.3 2.2 -0.1
v 0.3 2.2 -0.1
v 0.5 2.2 -0.1
v -0.1 2.2 -0.3
v 0.1 2.2 -0.3
v -0.1 2.2 -0.5
v 0.1 2.2 -0.5
v -0.4 2.3 0.5
v -0.1 2.3 0.5
v 0.1 2.3 0.5
v 0.4 2.3 0.5
v -0.5 2.3 0.4
v -0.4 2.3 0.4
v 0.4 2.3 0.4
v 0.5 2.3 0.4
v -0.2 2.3 0.2
v -0.1 2.3 0.2
v 0.1 2.3 0.2
v 0.2 2.3 0.2
v -0.5 2.3 0.1
v -0.2 2.3 0.1
v 0.2 2.3 0.1
v 0.5 2.3 0.1
v -0.5 2.3 -0.1
v -0.2 2.3 -0.1
v 0.2 2.3 -0.1
v 0.5 2.3 -0.1
v -0.2 2.3 -0.2
v -0.1 2.3 -0.2
v 0.1 2.3 -0.2
v 0.2 2.3 -0.2
v -0.5 2.3 -0.4
v -0.4 2.3 -0.4
v 0.4 2.3 -0.4
v 0.5 2.3 -0.4
v -0.4 2.3 -0.5
v -0.1 2.3 -0.5
v 0.1 2.3 -0.5
v 0.4 2.3 -0.5
v -0.4 2.8 0.5
v 0.4 2.8 0.5
v -0.5 2.8 0.4
v -0.4 2.8 0.4
v 0.4 2.8 0.4
v 0.5 2.8 0.4
v -0.5 2.8 -0.4
v -0.4 2.8 -0.4
v 0.4 2.8 -0.4
v 0.5 2.8 -0.4
v -0.4 2.8 -0.5
v 0.4 2.8 -0.5
v -0.4 2.9 0.4
v 0.4 2.9 0.4
v -0.3 2.9 0.3
v -0.2 2.9 0.3
v -0.1 2.9 0.3
v 0 2.9 0.3
v 0.1 2.9 0.3
v 0.3 2.9 0.3
v -0.3 2.9 0.2
v 0.3 2.9 0.1
v -0.3 2.9 0
v 0.3 2.9 0
v 0.3 2.9 -0.2
v -0.3 2.9 -0.3
v -0.2 2.9 -0.3
v 0 2.9 -0.3
v 0.3 2.9 -0.3
v -0.4 2.9 -0.4
v 0.4 2.9 -0.4
v -0.3 3 0.3
v -0.2 3 0.3
v 0.2 3 0.3
v 0.3 3 0.3
v -0.3 3 0.2
v -0.2 3 0.2
v 0.2 3 0.2
v 0.3 3 0.2
v 0.2 3 -0.2
v 0.3 3 -0.2
v 0.2 3 -0.3
v 0.3 3 -0.3
v -0.2 3.1 0.3
v -0.1 3.1 0.3
v -0.3 3.1 0.2
v -0.2 3.1 0.2
v -0.1 3.1 0.2
v 0.2 3.1 0.2
v 0.3 3.1 0.2
v -0.3 3.1 0.1
v -0.2 3.1 0.1
v 0.2 3.1 0.1
v 0.3 3.1 0.1
v -0.3 3.1 -0.2
v -0.2 3.1 -0.2
v -0.3 3.1 -0.3
v -0.2 3.1 -0.3
v -0.2 3.2 0.1
v -0.1 3.2 0.1
v -0.2 3.2 0
v -0.1 3.2 0
v 0.2 3.2 0
v 0.3 3.2 0
v -0.2 3.2 -0.1
v -0.1 3.2 -0.1
v 0.2 3.2 -0.1
v 0.3 3.2 -0.1
v -0.2 3.2 -0.2
v -0.1 3.2 -0.2
v 0.1 3.2 -0.2
v 0.2 3.2 -0.2
v 0.3 3.2 -0.2
v -0.2 3.2 -0.3
v -0.1 3.2 -0.3
v 0.1 3.2 -0.3
v 0.2 3.2 -0.3
v -0.1 3.3 0.3
v 0.1 3.3 0.3
v 0.2 3.3 0.3
v -0.1 3.3 0.2
v 0 3.3 0.2
v 0.1 3.3 0.2
v 0 3.3 0.1
v 0.1 3.3 0.1
v 0.2 3.3 0.1
v -0.2 3.4 0.2
v -0.1 3.4 0.2
v 0 3.4 0.2
v -0.3 3.4 0.1
v -0.2 3.4 0.1
v -0.1 3.4 0.1
v 0 3.4 0.1
v 0.2 3.4 0.1
v 0.3 3.4 0.1
v 0 3.4 0
v 0.1 3.4 0
v 0.2 3.4 0
v 0.3 3.4 0
v -0.3 3.4 -0.1
v -0.2 3.4 -0.1
v -0.1 3.4 -0.1
v 0 3.4 -0.1
v 0.1 3.4 -0.1
v 0.2 3.4 -0.1
v -0.3 3.4 -0.2
v -0.2 3.4 -0.2
v -0.1 3.4 -0.2
v 0 3.4 -0.2
v 0.1 3.4 -0.2
v 0.2 3.4 -0.2
v -0.1 3.4 -0.3
v 0 3.4 -0.3
v 0.1 3.4 -0.3

# faces
f 4/4/1 2/4/1 1/4/1
f 5/4/1 2/4/1 4/4/1
f 7/5/1 4/5/1 3/5/1
f 7/5/1 6/5/1 5/5/1
f 7/5/1 5/5/1 4/5/1
f 8/5/1 6/5/1 7/5/1
f 13/5/1 10/5/1 9/5/1
f 14/5/1 10/5/1 13/5/1
f 15/5/1 12/5/1 11/5/1
f 16/5/1 12/5/1 15/5/1
f 17/5/1 15/5/1 14/5/1
f 18/5/1 15/5/1 17/5/1
f 21/4/1 20/4/1 19/4/1
f 22/4/1 20/4/1 21/4/1
f 27/3/1 24/3/1 23/3/1
f 28/1/1 25/1/1 24/1/1
f 28/3/1 24/3/1 27/3/1
f 29/2/1 26/2/1 25/2/1
f 29/1/1 25/1/1 28/1/1
f 30/2/1 26/2/1 29/2/1
f 31/2/1 26/2/1 30/2/1
f 32/3/1 29/3/1 28/3/1
f 33/3/1 29/3/1 32/3/1
f 34/2/1 30/2/1 29/2/1
f 34/3/1 29/3/1 33/3/1
f 35/3/1 31/3/1 30/3/1
f 35/2/1 30/2/1 34/2/1
f 36/3/1 31/3/1 35/3/1
f 37/1/1 34/1/1 33/1/1
f 38/2/1 35/2/1 34/2/1
f 38/1/1 34/1/1 37/1/1
f 39/2/1 35/2/1 38/2/1
f 40/2/1 35/2/1 39/2/1
f 41/2/1 38/2/1 37/2/1
f 42/1/1 39/1/1 38/1/1
f 42/2/1 38/2/1 41/2/1
f 43/3/1 40/3/1 39/3/1
f 43/1/1 39/1/1 42/1/1
f 44/3/1 40/3/1 43/3/1
f 45/3/1 42/3/1 41/3/1
f 45/3/1 43/3/1 42/3/1
f 46/1/1 44/1/1 43/1/1
f 46/3/1 43/3/1 45/3/1
f 47/1/1 44/1/1 46/1/1
f 51/5/1 49/5/1 48/5/1
f 52/5/1 49/5/1 51/5/1
f 54/5/1 51/5/1 50/5/1
f 54/5/1 53/5/1 52/5/1
f 54/5/1 52/5/1 51/5/1
f 55/5/1 53/5/1 54/5/1
f 56/5/1 54/5/1 50/5/1
f 57/5/1 54/5/1 56/5/1
f 58/5/1 53/5/1 55/5/1
f 59/5/1 53/5/1 58/5/1
f 62/2/1 61/2/1 60/2/1
f 63/2/1 61/2/1 62/2/1
f 67/3/1 64/3/1 63/3/1
f 68/3/1 64/3/1 67/3/1
f 69/2/1 66/2/1 65/2/1
f 70/2/1 66/2/1 69/2/1
f 71/1/1 68/1/1 67/1/1
f 72/1/1 68/1/1 71/1/1
f 73/3/1 72/3/1 71/3/1
f 74/3/1 72/3/1 73/3/1
f 79/5/1 76/5/1 75/5/1
f 80/5/1 76/5/1 79/5/1
f 81/5/1 78/5/1 77/5/1
f 82/5/1 78/5/1 81/5/1
f 88/4/1 84/4/1 83/4/1
f 89/4/1 86/4/1 85/4/1
f 91/4/1 88/4/1 87/4/1
f 92/4/1 84/4/1 88/4/1
f 92/4/1 88/4/1 91/4/1
f 93/4/1 90/4/1 89/4/1
f 93/4/1 89/4/1 85/4/1
f 94/4/1 90/4/1 93/4/1
f 97/1/1 96/1/1 95/1/1
f 98/1/1 96/1/1 97/1/1
f 104/3/1 98/3/1 97/3/1
f 105/3/1 98/3/1 104/3/1
f 106/1/1 100/1/1 99/1/1
f 106/1/1 101/1/1 100/1/1
f 107/3/1 103/3/1 102/3/1
f 108/3/1 103/3/1 107/3/1
f 109/1/1 101/1/1 106/1/1
f 110/1/1 101/1/1 109/1/1
f 111/2/1 108/2/1 107/2/1
f 112/2/1 108/2/1 111/2/1
f 113/2/2 114/2/2 116/2/2
f 114/1/2 115/1/2 117/1/2
f 116/2/2 114/2/2 117/2/2
f 117/1/2 115/1/2 118/1/2
f 116/3/2 117/3/2 119/3/2
f 117/3/2 118/3/2 119/3/2
f 119/3/2 118/3/2 120/3/2
f 121/1/2 122/1/2 123/1/2
f 123/1/2 122/1/2 124/1/2
f 125/5/2 126/5/2 129/5/2
f 129/5/2 126/5/2 130/5/2
f 127/5/2 128/5/2 131/5/2
f 131/5/2 128/5/2 132/5/2
f 133/4/2 134/4/2 138/4/2
f 135/4/2 136/4/2 139/4/2
f 137/4/2 138/4/2 141/4/2
f 138/4/2 134/4/2 142/4/2
f 141/4/2 138/4/2 142/4/2
f 139/4/2 140/4/2 143/4/2
f 135/4/2 139/4/2 143/4/2
f 143/4/2 140/4/2 144/4/2
f 145/1/2 146/1/2 147/1/2
f 147/1/2 146/1/2 148/1/2
f 148/1/2 146/1/2 149/1/2
f 150/5/2 151/5/2 153/5/2
f 153/5/2 151/5/2 154/5/2
f 152/5/2 153/5/2 156/5/2
f 154/5/2 155/5/2 156/5/2
f 153/5/2 154/5/2 156/5/2
f 156/5/2 155/5/2 157/5/2
f 152/5/2 156/5/2 158/5/2
f 158/5/2 156/5/2 159/5/2
f 157/5/2 155/5/2 160/5/2
f 160/5/2 155/5/2 161/5/2
f 162/2/2 163/2/2 166/2/2
f 166/2/2 163/2/2 167/2/2
f 164/3/2 165/3/2 169/3/2
f 169/3/2 165/3/2 170/3/2
f 167/2/2 168/2/2 171/2/2
f 166/1/2 167/1/2 171/1/2
f 171/2/2 168/2/2 172/2/2
f 169/2/2 170/2/2 175/2/2
f 175/2/2 170/2/2 176/2/2
f 166/1/2 171/1/2 177/1/2
f 171/1/2 172/1/2 177/1/2
f 177/1/2 172/1/2 178/1/2
f 173/3/2 174/3/2 179/3/2
f 174/2/2 175/2/2 180/2/2
f 179/3/2 174/3/2 180/3/2
f 180/2/2 175/2/2 181/2/2
f 179/1/2 180/1/2 182/1/2
f 180/3/2 181/3/2 183/3/2
f 182/1/2 180/1/2 183/1/2
f 183/3/2 181/3/2 184/3/2
f 185/4/2 186/4/2 187/4/2
f 187/4/2 186/4/2 188/4/2
f 189/1/2 190/1/2 194/1/2
f 194/1/2 190/1/2 195/1/2
f 190/2/2 191/2/2 196/2/2
f 195/1/2 190/1/2 196/1/2
f 191/3/2 192/3/2 197/3/2
f 196/2/2 191/2/2 197/2/2
f 192/1/2 193/1/2 198/1/2
f 197/3/2 192/3/2 198/3/2
f 198/1/2 193/1/2 199/1/2
f 195/2/2 196/2/2 200/2/2
f 196/3/2 197/3/2 201/3/2
f 200/2/2 196/2/2 201/2/2
f 197/1/2 198/1/2 202/1/2
f 201/3/2 197/3/2 202/3/2
f 202/1/2 198/1/2 203/1/2
f 201/1/2 202/1/2 204/1/2
f 202/2/2 203/2/2 205/2/2
f 204/1/2 202/1/2 205/1/2
f 203/1/2 198/1/2 206/1/2
f 205/2/2 203/2/2 206/2/2
f 206/1/2 198/1/2 207/1/2
f 204/3/2 205/3/2 208/3/2
f 208/3/2 205/3/2 209/3/2
f 210/5/2 211/5/2 214/5/2
f 214/5/2 211/5/2 215/5/2
f 212/5/2 213/5/2 216/5/2
f 216/5/2 213/5/2 217/5/2
f 215/5/2 216/5/2 218/5/2
f 218/5/2 216/5/2 219/5/2
f 220/4/2 221/4/2 223/4/2
f 223/4/2 221/4/2 224/4/2
f 222/5/2 223/5/2 226/5/2
f 224/5/2 225/5/2 226/5/2
f 223/5/2 224/5/2 226/5/2
f 226/5/2 225/5/2 227/5/2
f 231/5/3 229/5/3 228/5/3
f 232/4/3 231/4/3 230/4/3
f 233/5/3 229/5/3 231/5/3
f 233/4/3 231/4/3 232/4/3
f 234/5/3 229/5/3 233/5/3
f 235/5/3 229/5/3 234/5/3
f 238/5/3 237/5/3 236/5/3
f 239/5/3 237/5/3 238/5/3
f 242/5/3 240/5/3 239/5/3
f 243/5/3 240/5/3 242/5/3
f 244/5/3 242/5/3 241/5/3
f 245/5/3 242/5/3 244/5/3
f 248/3/3 247/3/3 246/3/3
f 249/3/3 247/3/3 248/3/3
f 253/2/3 249/2/3 248/2/3
f 253/2/3 250/2/3 249/2/3
f 254/2/3 250/2/3 253/2/3
f 257/1/3 254/1/3 253/1/3
f 257/1/3 255/1/3 254/1/3
f 258/3/3 256/3/3 255/3/3
f 258/1/3 255/1/3 257/1/3
f 259/4/3 252/4/3 251/4/3
f 260/4/3 252/4/3 259/4/3
f 261/3/3 258/3/3 257/3/3
f 262/3/3 258/3/3 261/3/3
f 263/3/3 258/3/3 262/3/3
f 264/3/3 256/3/3 258/3/3
f 264/3/3 258/3/3 263/3/3
f 265/2/3 263/2/3 262/2/3
f 265/1/3 262/1/3 261/1/3
f 266/1/3 264/1/3 263/1/3
f 266/2/3 263/2/3 265/2/3
f 267/1/3 264/1/3 266/1/3
f 268/1/3 265/1/3 261/1/3
f 269/1/3 265/1/3 268/1/3
f 274/3/3 271/3/3 270/3/3
f 275/3/3 271/3/3 274/3/3
f 280/5/3 273/5/3 272/5/3
f 281/5/3 273/5/3 280/5/3
f 282/5/3 273/5/3 281/5/3
f 283/3/3 276/3/3 275/3/3
f 284/1/3 277/1/3 276/1/3
f 284/3/3 276/3/3 283/3/3
f 285/3/3 278/3/3 277/3/3
f 285/1/3 277/1/3 284/1/3
f 286/3/3 278/3/3 285/3/3
f 287/1/3 286/1/3 285/1/3
f 288/1/3 286/1/3 287/1/3
f 289/5/3 281/5/3 280/5/3
f 289/5/3 280/5/3 279/5/3
f 290/5/3 281/5/3 289/5/3
f 291/5/3 281/5/3 290/5/3
f 293/5/3 292/5/3 291/5/3
f 293/5/3 291/5/3 290/5/3
f 294/5/3 292/5/3 293/5/3
f 297/2/3 296/2/3 295/2/3
f 298/2/3 296/2/3 297/2/3
f 302/4/3 300/4/3 299/4/3
f 309/4/3 302/4/3 301/4/3
f 310/4/3 300/4/3 302/4/3
f 310/4/3 302/4/3 309/4/3
f 311/1/3 304/1/3 303/1/3
f 312/2/3 305/2/3 304/2/3
f 312/1/3 304/1/3 311/1/3
f 313/3/3 306/3/3 305/3/3
f 313/2/3 305/2/3 312/2/3
f 314/3/3 306/3/3 313/3/3
f 315/5/3 308/5/3 307/5/3
f 316/5/3 308/5/3 315/5/3
f 321/2/3 318/2/3 317/2/3
f 322/5/3 320/5/3 319/5/3
f 323/5/3 320/5/3 322/5/3
f 328/2/3 318/2/3 321/2/3
f 329/2/3 318/2/3 328/2/3
f 330/4/3 325/4/3 324/4/3
f 331/4/3 325/4/3 330/4/3
f 332/1/3 327/1/3 326/1/3
f 333/3/3 329/3/3 328/3/3
f 333/1/3 327/1/3 332/1/3
f 333/3/3 328/3/3 327/3/3
f 334/3/3 329/3/3 333/3/3
f 335/4/3 325/4/3 331/4/3
f 336/4/3 325/4/3 335/4/3
f 340/3/3 338/3/3 337/3/3
f 340/3/3 339/3/3 338/3/3
f 341/3/3 339/3/3 340/3/3
f 342/1/4 343/1/4 345/1/4
f 343/3/4 344/3/4 346/3/4
f 345/1/4 343/1/4 346/1/4
f 346/3/4 344/3/4 347/3/4
f 348/3/4 349/3/4 351/3/4
f 349/3/4 350/3/4 351/3/4
f 351/3/4 350/3/4 352/3/4
f 353/4/4 354/4/4 356/4/4
f 355/4/4 356/4/4 359/4/4
f 356/4/4 354/4/4 360/4/4
f 359/4/4 356/4/4 360/4/4
f 357/5/4 358/5/4 361/5/4
f 361/5/4 358/5/4 362/5/4
f 363/5/4 364/5/4 365/5/4
f 365/5/4 364/5/4 366/5/4
f 367/4/4 368/4/4 369/4/4
f 369/4/4 368/4/4 370/4/4
f 370/4/4 368/4/4 371/4/4
f 371/4/4 368/4/4 372/4/4
f 373/2/4 374/2/4 379/2/4
f 374/3/4 375/3/4 380/3/4
f 379/2/4 374/2/4 380/2/4
f 375/1/4 376/1/4 381/1/4
f 380/3/4 375/3/4 381/3/4
f 381/1/4 376/1/4 382/1/4
f 377/5/4 378/5/4 384/5/4
f 384/5/4 378/5/4 385/5/4
f 385/5/4 378/5/4 386/5/4
f 381/3/4 382/3/4 387/3/4
f 380/3/4 381/3/4 387/3/4
f 387/3/4 382/3/4 388/3/4
f 388/3/4 382/3/4 389/3/4
f 384/5/4 385/5/4 390/5/4
f 383/5/4 384/5/4 390/5/4
f 390/5/4 385/5/4 391/5/4
f 391/5/4 385/5/4 392/5/4
f 391/5/4 392/5/4 397/5/4
f 392/5/4 393/5/4 397/5/4
f 397/5/4 393/5/4 398/5/4
f 394/2/4 395/2/4 401/2/4
f 395/3/4 396/3/4 402/3/4
f 401/2/4 395/2/4 402/2/4
f 402/3/4 396/3/4 403/3/4
f 400/1/4 401/1/4 404/1/4
f 399/1/4 400/1/4 404/1/4
f 404/1/4 401/1/4 405/1/4
f 406/2/4 407/2/4 409/2/4
f 407/3/4 408/3/4 410/3/4
f 409/2/4 407/2/4 410/2/4
f 410/3/4 408/3/4 411/3/4
f 411/2/4 412/2/4 415/2/4
f 409/3/4 410/3/4 418/3/4
f 410/3/4 411/3/4 418/3/4
f 418/3/4 411/3/4 419/3/4
f 411/2/4 415/2/4 420/2/4
f 419/3/4 411/3/4 420/3/4
f 415/3/4 416/3/4 421/3/4
f 420/2/4 415/2/4 421/2/4
f 416/2/4 417/2/4 422/2/4
f 421/3/4 416/3/4 422/3/4
f 422/2/4 417/2/4 423/2/4
f 413/4/4 414/4/4 424/4/4
f 424/4/4 414/4/4 425/4/4
f 420/2/4 421/2/4 426/2/4
f 419/2/4 420/2/4 426/2/4
f 418/1/4 419/1/4 426/1/4
f 426/2/4 421/2/4 427/2/4
f 422/1/4 423/1/4 428/1/4
f 427/2/4 421/2/4 428/2/4
f 421/1/4 422/1/4 428/1/4
f 428/1/4 423/1/4 429/1/4
f 426/3/4 427/3/4 430/3/4
f 418/1/4 426/1/4 430/1/4
f 427/2/4 428/2/4 431/2/4
f 430/3/4 427/3/4 431/3/4
f 431/2/4 428/2/4 432/2/4
f 418/1/4 430/1/4 433/1/4
f 433/1/4 430/1/4 434/1/4
f 435/5/4 436/5/4 437/5/4
f 437/5/4 436/5/4 438/5/4
f 438/5/4 439/5/4 441/5/4
f 441/5/4 439/5/4 442/5/4
f 440/5/4 441/5/4 443/5/4
f 443/5/4 441/5/4 444/5/4
f 445/5/4 446/5/4 448/5/4
f 447/4/4 448/4/4 449/4/4
f 448/5/4 446/5/4 450/5/4
f 449/4/4 448/4/4 450/4/4
f 450/5/4 446/5/4 451/5/4
f 451/5/4 446/5/4 452/5/4
f 456/5/5 454/5/5 453/5/5
f 457/5/5 454/5/5 456/5/5
f 459/5/5 456/5/5 455/5/5
f 459/5/5 458/5/5 457/5/5
f 459/5/5 457/5/5 456/5/5
f 460/5/5 458/5/5 459/5/5
f 461/5/5 458/5/5 460/5/5
f 462/5/5 458/5/5 461/5/5
f 463/5/5 461/5/5 460/5/5
f 464/5/5 461/5/5 463/5/5
f 469/5/5 466/5/5 465/5/5
f 470/5/5 466/5/5 469/5/5
f 471/5/5 468/5/5 467/5/5
f 472/5/5 468/5/5 471/5/5
f 477/5/5 474/5/5 473/5/5
f 478/5/5 474/5/5 477/5/5
f 479/5/5 476/5/5 475/5/5
f 480/5/5 476/5/5 479/5/5
f 483/4/5 482/4/5 481/4/5
f 484/4/5 482/4/5 483/4/5
f 489/4/5 486/4/5 485/4/5
f 490/4/5 486/4/5 489/4/5
f 491/4/5 488/4/5 487/4/5
f 492/4/5 488/4/5 491/4/5
f 495/4/5 494/4/5 493/4/5
f 496/4/5 494/4/5 495/4/5
f 499/4/5 498/4/5 497/4/5
f 500/4/5 498/4/5 499/4/5
f 505/4/5 502/4/5 501/4/5
f 506/4/5 502/4/5 505/4/5
f 507/4/5 504/4/5 503/4/5
f 508/4/5 504/4/5 507/4/5
f 511/4/5 510/4/5 509/4/5
f 512/4/5 510/4/5 511/4/5
f 518/5/5 514/5/5 513/5/5
f 519/5/5 516/5/5 515/5/5
f 521/5/5 518/5/5 517/5/5
f 521/5/5 514/5/5 518/5/5
f 522/5/5 514/5/5 521/5/5
f 523/5/5 520/5/5 519/5/5
f 523/5/5 519/5/5 515/5/5
f 524/5/5 520/5/5 523/5/5
f 525/5/5 521/5/5 517/5/5
f 526/5/5 521/5/5 525/5/5
f 527/5/5 520/5/5 524/5/5
f 528/5/5 520/5/5 527/5/5
f 533/5/5 530/5/5 529/5/5
f 536/5/5 532/5/5 531/5/5
f 537/5/5 534/5/5 533/5/5
f 537/5/5 533/5/5 529/5/5
f 538/5/5 534/5/5 537/5/5
f 539/5/5 536/5/5 535/5/5
f 539/5/5 532/5/5 536/5/5
f 540/5/5 532/5/5 539/5/5
f 541/5/5 534/5/5 538/5/5
f 542/5/5 534/5/5 541/5/5
f 543/5/5 539/5/5 535/5/5
f 544/5/5 539/5/5 543/5/5
f 545/5/6 546/5/6 548/5/6
f 548/5/6 546/5/6 549/5/6
f 547/5/6 548/5/6 551/5/6
f 551/5/6 548/5/6 552/5/6
f 549/5/6 550/5/6 553/5/6
f 553/5/6 550/5/6 554/5/6
f 552/5/6 553/5/6 555/5/6
f 555/5/6 553/5/6 556/5/6
f 557/5/6 558/5/6 559/5/6
f 559/5/6 558/5/6 560/5/6
f 560/5/6 558/5/6 561/5/6
f 561/5/6 558/5/6 562/5/6
f 562/5/6 558/5/6 563/5/6
f 563/5/6 558/5/6 564/5/6
f 557/5/6 559/5/6 565/5/6
f 564/5/6 558/5/6 566/5/6
f 557/5/6 565/5/6 567/5/6
f 566/5/6 558/5/6 568/5/6
f 568/5/6 558/5/6 569/5/6
f 557/5/6 567/5/6 570/5/6
f 569/5/6 558/5/6 573/5/6
f 571/5/6 572/5/6 574/5/6
f 572/5/6 573/5/6 574/5/6
f 557/5/6 570/5/6 574/5/6
f 570/5/6 571/5/6 574/5/6
f 573/5/6 558/5/6 575/5/6
f 574/5/6 573/5/6 575/5/6
f 576/3/6 577/3/6 580/3/6
f 580/3/6 577/3/6 581/3/6
f 578/1/6 579/1/6 582/1/6
f 582/1/6 579/1/6 583/1/6
f 584/1/6 585/1/6 586/1/6
f 586/1/6 585/1/6 587/1/6
f 588/2/6 589/2/6 591/2/6
f 591/2/6 589/2/6 592/2/6
f 590/3/6 591/3/6 595/3/6
f 595/3/6 591/3/6 596/3/6
f 593/2/6 594/2/6 597/2/6
f 597/2/6 594/2/6 598/2/6
f 599/3/6 600/3/6 601/3/6
f 601/3/6 600/3/6 602/3/6
f 603/2/6 604/2/6 605/2/6
f 605/2/6 604/2/6 606/2/6
f 605/3/6 606/3/6 609/3/6
f 609/3/6 606/3/6 610/3/6
f 607/2/6 608/2/6 611/2/6
f 611/2/6 608/2/6 612/2/6
f 611/1/6 612/1/6 616/1/6
f 616/1/6 612/1/6 617/1/6
f 613/2/6 614/2/6 618/2/6
f 618/2/6 614/2/6 619/2/6
f 615/2/6 616/2/6 620/2/6
f 620/2/6 616/2/6 621/2/6
f 622/3/6 623/3/6 625/3/6
f 625/3/6 623/3/6 626/3/6
f 623/1/6 624/1/6 627/1/6
f 626/3/6 623/3/6 627/3/6
f 626/2/6 627/2/6 628/2/6
f 627/1/6 624/1/6 629/1/6
f 628/2/6 627/2/6 629/2/6
f 629/1/6 624/1/6 630/1/6
f 631/3/6 632/3/6 635/3/6
f 632/1/6 633/1/6 636/1/6
f 635/3/6 632/3/6 636/3/6
f 636/1/6 633/1/6 637/1/6
f 636/1/6 637/1/6 640/1/6
f 637/2/6 638/2/6 640/2/6
f 640/2/6 638/2/6 641/2/6
f 638/3/6 639/3/6 642/3/6
f 641/2/6 638/2/6 642/2/6
f 642/3/6 639/3/6 643/3/6
f 634/3/6 635/3/6 644/3/6
f 644/3/6 635/3/6 645/3/6
f 636/1/6 640/1/6 646/1/6
f 640/3/6 641/3/6 647/3/6
f 646/1/6 640/1/6 647/1/6
f 641/1/6 642/1/6 648/1/6
f 647/3/6 641/3/6 648/3/6
f 648/1/6 642/1/6 649/1/6
f 644/1/6 645/1/6 650/1/6
f 645/3/6 646/3/6 651/3/6
f 650/1/6 645/1/6 651/1/6
f 646/3/6 647/3/6 651/3/6
f 648/3/6 649/3/6 651/3/6
f 647/3/6 648/3/6 651/3/6
f 651/3/6 649/3/6 652/3/6
f 652/3/6 649/3/6 653/3/6
f 653/3/6 649/3/6 654/3/6
f 654/3/6 649/3/6 655/3/6
f 652/2/6 653/2/6 656/2/6
f 653/1/6 654/1/6 657/1/6
f 656/2/6 653/2/6 657/2/6
f 657/1/6 654/1/6 658/1/6
